<?xml version="1.0" encoding="iso-8859-1"?>
<!-- Uploaded to: SVG Repo, www.svgrepo.com, Generator: SVG Repo Mixer Tools -->
<svg version="1.1" id="Layer_1" xmlns="http://www.w3.org/2000/svg" xmlns:xlink="http://www.w3.org/1999/xlink" 
	 viewBox="0 0 390.032 390.032" xml:space="preserve">
<path style="fill:#FFFFFF;" d="M205.842,101.366C123.999,94.836,55.733,163.168,62.197,245.01
	c4.848,64.517,57.471,117.075,121.923,121.923c81.842,7.046,150.109-61.22,143.644-143.644
	C322.916,158.772,270.294,106.731,205.842,101.366z"/>
<rect x="168.993" y="22.238" style="fill:#FFC10D;" width="52.04" height="20.04"/>
<path style="fill:#56ACE0;" d="M206.359,344.695c-69.883,7.046-128.453-51.523-121.923-121.923
	c5.43-52.04,47.127-93.737,99.168-99.168c69.883-7.111,128.453,51.459,121.923,121.923
	C300.096,297.503,258.399,339.265,206.359,344.695z"/>
<g>
	<path style="fill:#194F82;" d="M304.428,123.539l13.576-13.576c3.232-3.232,4.848-8.663,2.715-12.994
		c-3.814-7.046-12.994-8.145-17.907-3.232l-15.192,15.192c-23.273-16.808-50.941-27.669-81.325-29.802V65.034h25.988
		c5.947,0,11.378-4.848,11.378-11.378V11.378C243.66,5.43,238.811,0,232.282,0h-74.667c-5.947,0-11.378,4.848-11.378,11.378v42.279
		c0,5.947,4.848,11.378,11.378,11.378h25.988v14.093C99.046,85.075,32.395,159.354,39.442,247.661
		c6.529,75.895,68.848,137.115,145.261,142.028c90.505,5.947,166.4-66.133,166.4-155.539
		C351.038,191.289,333.195,151.725,304.428,123.539z M205.842,367.451c-81.842,6.529-150.109-61.802-143.644-144.162
		c4.848-64.517,57.471-117.075,121.923-121.923c81.842-6.529,150.109,61.802,143.644,144.162
		C322.916,309.98,270.294,362.02,205.842,367.451z M168.993,22.238h52.04v20.04h-52.04V22.238L168.993,22.238z"/>
	<path style="fill:#194F82;" d="M191.167,138.731c-4.848,1.616-7.564,5.947-7.564,11.378v78.61c0,4.848,2.715,9.762,7.564,11.378
		c7.564,2.715,15.192-3.232,15.192-10.861v-79.644C206.359,141.964,199.312,136.016,191.167,138.731z"/>
</g>
</svg>